# Blender v2.68 (sub 0) OBJ File: 'cutlass.blend'
# www.blender.org
mtllib door.mtl
o Hood.008_Plane.034
v 0.631037 0.142691 -0.759803
v 0.638370 0.682796 -0.759803
v 0.631036 0.142691 -2.327676
v 0.638370 0.682796 -2.327676
v 0.631923 0.210204 -0.759803
v 0.635068 0.277717 -0.759803
v 0.639985 0.345230 -0.759803
v 0.648842 0.412744 -0.759803
v 0.652930 0.480257 -0.759803
v 0.654398 0.547770 -0.759803
v 0.646942 0.615283 -0.759803
v 0.631923 0.210204 -2.327676
v 0.635068 0.277717 -2.327676
v 0.639985 0.345230 -2.327676
v 0.648842 0.412744 -2.327676
v 0.652366 0.480257 -2.327676
v 0.650770 0.547770 -2.327676
v 0.646942 0.615283 -2.327676
v 0.631036 0.142691 -1.021115
v 0.631036 0.142691 -1.282428
v 0.631036 0.142691 -1.543740
v 0.631036 0.142691 -1.805052
v 0.631036 0.142691 -2.066364
v 0.638370 0.682796 -2.066364
v 0.638370 0.682796 -1.805052
v 0.638370 0.682796 -1.543740
v 0.638370 0.682796 -1.282428
v 0.638370 0.682796 -1.021115
v 0.646942 0.615283 -1.021115
v 0.646942 0.615283 -1.282428
v 0.646942 0.615283 -1.543740
v 0.646942 0.615283 -1.805052
v 0.646942 0.615283 -2.066364
v 0.654398 0.547770 -1.021115
v 0.654398 0.547770 -1.282428
v 0.654398 0.547770 -1.543740
v 0.654398 0.547770 -1.805052
v 0.654398 0.547770 -2.066364
v 0.652930 0.480257 -1.021115
v 0.652930 0.480257 -1.282428
v 0.652930 0.480257 -1.543740
v 0.652930 0.480257 -1.805052
v 0.652930 0.480257 -2.066364
v 0.648842 0.412744 -1.021115
v 0.648842 0.412744 -1.282428
v 0.648842 0.412744 -1.543740
v 0.648842 0.412744 -1.805052
v 0.648842 0.412744 -2.066364
v 0.639985 0.345230 -1.021115
v 0.639985 0.345230 -1.282428
v 0.639985 0.345230 -1.543740
v 0.639985 0.345230 -1.805052
v 0.639985 0.345230 -2.066364
v 0.635068 0.277717 -1.021115
v 0.635068 0.277717 -1.282428
v 0.635068 0.277717 -1.543740
v 0.635068 0.277717 -1.805052
v 0.635068 0.277717 -2.066364
v 0.631923 0.210204 -1.021115
v 0.631923 0.210204 -1.282428
v 0.631923 0.210204 -1.543740
v 0.631923 0.210204 -1.805052
v 0.631923 0.210204 -2.066364
v 0.649492 0.592779 -0.759803
v 0.652314 0.570274 -0.759803
v 0.648218 0.592779 -2.327676
v 0.649494 0.570274 -2.327676
v 0.652314 0.570274 -1.021115
v 0.649492 0.592779 -1.021115
v 0.652314 0.570274 -1.282428
v 0.649492 0.592779 -1.282428
v 0.652314 0.570274 -1.543740
v 0.649492 0.592779 -1.543740
v 0.652313 0.570274 -1.805052
v 0.649492 0.592779 -1.805052
v 0.652313 0.570274 -2.066364
v 0.649492 0.592779 -2.066364
v 0.655818 0.525266 -0.759803
v 0.654656 0.502761 -0.759803
v 0.651302 0.525266 -2.327676
v 0.651834 0.502761 -2.327676
v 0.654656 0.502761 -1.021115
v 0.655818 0.525266 -1.021115
v 0.654656 0.502761 -1.282428
v 0.655818 0.525266 -1.282428
v 0.654656 0.502761 -1.543740
v 0.655818 0.525266 -1.543740
v 0.654656 0.502761 -1.805052
v 0.655818 0.525266 -1.805052
v 0.654656 0.502761 -2.066364
v 0.655817 0.525266 -2.066364
vn 0.999542 -0.029817 0.000000
vn 0.999908 -0.013123 0.000000
vn 0.992035 0.125950 0.000000
vn 0.992859 0.119266 0.000000
vn 0.994201 0.107395 -0.003967
vn 0.996979 0.077090 -0.006165
vn 0.998260 0.057558 -0.012207
vn 0.998016 -0.062624 -0.003327
vn 0.997650 -0.068117 -0.000610
vn 0.999817 -0.016999 -0.006226
vn 0.995422 -0.095309 0.000000
vn 0.995758 -0.091830 -0.000885
vn 0.994842 -0.101382 0.000000
vn 0.998199 -0.059572 0.000000
vn 0.994110 0.108310 0.000000
vn 0.996979 0.077578 0.000000
vn 0.997925 -0.063997 0.000000
vn 0.997650 -0.068453 0.000000
vn 0.993042 0.117710 -0.001251
vn 0.995666 0.092868 -0.002289
vn 0.998230 0.058473 -0.007630
vn 0.992950 0.118473 0.000000
vn 0.999939 0.006195 -0.006287
vn 0.999023 0.041200 -0.015473
vn 0.999664 0.021546 -0.013855
vn 0.999969 0.005707 0.000000
vn 0.999542 0.023621 -0.017243
usemtl paint
s 1
f 63//1 23//2 12//1
f 24//3 33//4 4//3
f 76//5 38//6 67//7
f 90//8 43//9 16//10
f 43//9 48//11 15//12
f 48//11 53//13 15//12
f 53//13 58//14 14//13
f 58//14 63//1 13//14
f 5//1 1//2 59//1
f 59//1 19//2 60//1
f 60//1 20//2 61//1
f 61//1 21//2 62//1
f 62//1 22//2 63//1
f 2//3 11//4 28//3
f 28//3 29//4 27//3
f 27//3 30//4 26//3
f 26//3 31//4 25//3
f 25//3 32//4 24//3
f 65//15 10//16 68//15
f 68//15 34//16 70//15
f 70//15 35//16 72//15
f 72//15 36//16 74//15
f 74//15 37//16 76//5
f 79//17 9//18 82//17
f 82//17 39//18 84//17
f 84//17 40//18 86//17
f 86//17 41//18 88//17
f 88//17 42//18 90//8
f 9//18 8//11 39//18
f 39//18 44//11 40//18
f 40//18 45//11 41//18
f 41//18 46//11 42//18
f 42//18 47//11 43//9
f 8//11 7//13 44//11
f 44//11 49//13 45//11
f 45//11 50//13 46//11
f 46//11 51//13 47//11
f 47//11 52//13 48//11
f 7//13 6//14 49//13
f 49//13 54//14 50//13
f 50//13 55//14 51//13
f 51//13 56//14 52//13
f 52//13 57//14 53//13
f 6//14 5//1 54//14
f 54//14 59//1 55//14
f 55//14 60//1 56//14
f 56//14 61//1 57//14
f 57//14 62//1 58//14
f 33//4 77//19 18//20
f 77//19 76//5 66//21
f 11//4 64//22 29//4
f 64//22 65//15 69//22
f 29//4 69//22 30//4
f 69//22 68//15 71//22
f 30//4 71//22 31//4
f 71//22 70//15 73//22
f 31//4 73//22 32//4
f 73//22 72//15 75//22
f 32//4 75//22 33//4
f 75//22 74//15 77//19
f 38//6 91//23 17//24
f 91//23 90//8 81//25
f 10//16 78//26 34//16
f 78//26 79//17 83//26
f 34//16 83//26 35//16
f 83//26 82//17 85//26
f 35//16 85//26 36//16
f 85//26 84//17 87//26
f 36//16 87//26 37//16
f 87//26 86//17 89//26
f 37//16 89//26 38//6
f 89//26 88//17 91//23
f 23//2 3//2 12//1
f 33//4 18//20 4//3
f 38//6 17//24 67//7
f 81//25 90//8 16//10
f 16//10 43//9 15//12
f 53//13 14//13 15//12
f 58//14 13//14 14//13
f 63//1 12//1 13//14
f 1//2 19//2 59//1
f 19//2 20//2 60//1
f 20//2 21//2 61//1
f 21//2 22//2 62//1
f 22//2 23//2 63//1
f 11//4 29//4 28//3
f 29//4 30//4 27//3
f 30//4 31//4 26//3
f 31//4 32//4 25//3
f 32//4 33//4 24//3
f 10//16 34//16 68//15
f 34//16 35//16 70//15
f 35//16 36//16 72//15
f 36//16 37//16 74//15
f 37//16 38//6 76//5
f 9//18 39//18 82//17
f 39//18 40//18 84//17
f 40//18 41//18 86//17
f 41//18 42//18 88//17
f 42//18 43//9 90//8
f 8//11 44//11 39//18
f 44//11 45//11 40//18
f 45//11 46//11 41//18
f 46//11 47//11 42//18
f 47//11 48//11 43//9
f 7//13 49//13 44//11
f 49//13 50//13 45//11
f 50//13 51//13 46//11
f 51//13 52//13 47//11
f 52//13 53//13 48//11
f 6//14 54//14 49//13
f 54//14 55//14 50//13
f 55//14 56//14 51//13
f 56//14 57//14 52//13
f 57//14 58//14 53//13
f 5//1 59//1 54//14
f 59//1 60//1 55//14
f 60//1 61//1 56//14
f 61//1 62//1 57//14
f 62//1 63//1 58//14
f 77//19 66//21 18//20
f 76//5 67//7 66//21
f 64//22 69//22 29//4
f 65//15 68//15 69//22
f 69//22 71//22 30//4
f 68//15 70//15 71//22
f 71//22 73//22 31//4
f 70//15 72//15 73//22
f 73//22 75//22 32//4
f 72//15 74//15 75//22
f 75//22 77//19 33//4
f 74//15 76//5 77//19
f 91//23 80//27 17//24
f 80//27 91//23 81//25
f 78//26 83//26 34//16
f 79//17 82//17 83//26
f 83//26 85//26 35//16
f 82//17 84//17 85//26
f 85//26 87//26 36//16
f 84//17 86//17 87//26
f 87//26 89//26 37//16
f 86//17 88//17 89//26
f 89//26 91//23 38//6
f 88//17 90//8 91//23
o Hood.007_Plane.015
v -0.644835 0.142691 -0.760902
v -0.652169 0.682796 -0.760902
v -0.644835 0.142691 -2.345861
v -0.652169 0.682796 -2.345861
v -0.645722 0.210204 -0.760902
v -0.648866 0.277717 -0.760902
v -0.653783 0.345230 -0.760902
v -0.662641 0.412744 -0.760902
v -0.666729 0.480257 -0.760902
v -0.668196 0.547770 -0.760902
v -0.660740 0.615283 -0.760902
v -0.645722 0.210204 -2.345861
v -0.648866 0.277717 -2.345861
v -0.653783 0.345230 -2.345861
v -0.662641 0.412744 -2.345861
v -0.666165 0.480257 -2.345861
v -0.664569 0.547770 -2.345861
v -0.660740 0.615283 -2.345861
v -0.644835 0.142691 -1.025061
v -0.644835 0.142691 -1.289222
v -0.644835 0.142691 -1.553381
v -0.644835 0.142691 -1.817541
v -0.644835 0.142691 -2.081701
v -0.652169 0.682796 -2.081701
v -0.652169 0.682796 -1.817541
v -0.652169 0.682796 -1.553381
v -0.652169 0.682796 -1.289222
v -0.652169 0.682796 -1.025061
v -0.660740 0.615283 -1.025061
v -0.660740 0.615283 -1.289222
v -0.660740 0.615283 -1.553381
v -0.660740 0.615283 -1.817541
v -0.660740 0.615283 -2.081701
v -0.668196 0.547770 -1.025061
v -0.668196 0.547770 -1.289222
v -0.668196 0.547770 -1.553381
v -0.668196 0.547770 -1.817541
v -0.668196 0.547770 -2.081701
v -0.666729 0.480257 -1.025061
v -0.666729 0.480257 -1.289222
v -0.666729 0.480257 -1.553381
v -0.666729 0.480257 -1.817541
v -0.666729 0.480257 -2.081701
v -0.662641 0.412744 -1.025061
v -0.662641 0.412744 -1.289222
v -0.662641 0.412744 -1.553381
v -0.662641 0.412744 -1.817541
v -0.662641 0.412744 -2.081701
v -0.653783 0.345230 -1.025061
v -0.653783 0.345230 -1.289222
v -0.653783 0.345230 -1.553381
v -0.653783 0.345230 -1.817541
v -0.653783 0.345230 -2.081701
v -0.648866 0.277717 -1.025061
v -0.648866 0.277717 -1.289222
v -0.648866 0.277717 -1.553381
v -0.648866 0.277717 -1.817541
v -0.648866 0.277717 -2.081701
v -0.645722 0.210204 -1.025061
v -0.645722 0.210204 -1.289222
v -0.645722 0.210204 -1.553381
v -0.645722 0.210204 -1.817541
v -0.645722 0.210204 -2.081701
v -0.663290 0.592779 -0.760902
v -0.666112 0.570274 -0.760902
v -0.662017 0.592779 -2.345861
v -0.663293 0.570274 -2.345861
v -0.666112 0.570274 -1.025061
v -0.663290 0.592779 -1.025061
v -0.666112 0.570274 -1.289222
v -0.663290 0.592779 -1.289222
v -0.666112 0.570274 -1.553381
v -0.663290 0.592779 -1.553381
v -0.666112 0.570274 -1.817541
v -0.663290 0.592779 -1.817541
v -0.666112 0.570274 -2.081701
v -0.663290 0.592779 -2.081701
v -0.669616 0.525266 -0.760902
v -0.668455 0.502761 -0.760902
v -0.665101 0.525266 -2.345861
v -0.665633 0.502761 -2.345861
v -0.668455 0.502761 -1.025061
v -0.669616 0.525266 -1.025061
v -0.668455 0.502761 -1.289222
v -0.669616 0.525266 -1.289222
v -0.668455 0.502761 -1.553381
v -0.669616 0.525266 -1.553381
v -0.668455 0.502761 -1.817541
v -0.669616 0.525266 -1.817541
v -0.668455 0.502761 -2.081701
v -0.669616 0.525266 -2.081701
vn -0.999542 -0.029817 0.000000
vn -0.999908 -0.013123 0.000000
vn -0.992035 0.125950 0.000000
vn -0.992859 0.119266 0.000000
vn -0.994201 0.107395 -0.003906
vn -0.998260 0.057558 -0.012085
vn -0.996979 0.077090 -0.006104
vn -0.998016 -0.062624 -0.003296
vn -0.999664 0.021577 -0.013703
vn -0.999817 -0.016968 -0.006165
vn -0.997650 -0.068117 -0.000610
vn -0.995758 -0.091830 -0.000885
vn -0.995422 -0.095309 0.000000
vn -0.994842 -0.101382 0.000000
vn -0.998199 -0.059572 0.000000
vn -0.994110 0.108310 0.000000
vn -0.996979 0.077578 0.000000
vn -0.997925 -0.063997 0.000000
vn -0.997650 -0.068453 0.000000
vn -0.995666 0.092837 -0.002258
vn -0.993042 0.117710 -0.001251
vn -0.998260 0.058443 -0.007569
vn -0.992950 0.118473 0.000000
vn -0.999023 0.041169 -0.015290
vn -0.999939 0.006195 -0.006226
vn -0.999573 0.023621 -0.017060
vn -0.999969 0.005707 0.000000
usemtl paint
s 1
f 154//28 103//28 114//29
f 115//30 95//30 124//31
f 167//32 158//33 129//34
f 181//35 172//36 107//37
f 134//38 107//37 106//39
f 139//40 106//39 144//41
f 144//41 105//41 149//42
f 149//42 104//42 154//28
f 96//28 150//28 92//29
f 150//28 151//28 110//29
f 151//28 152//28 111//29
f 152//28 153//28 112//29
f 153//28 154//28 113//29
f 93//30 119//30 102//31
f 119//30 118//30 120//31
f 118//30 117//30 121//31
f 117//30 116//30 122//31
f 116//30 115//30 123//31
f 156//43 159//43 101//44
f 159//43 161//43 125//44
f 161//43 163//43 126//44
f 163//43 165//43 127//44
f 165//43 167//32 128//44
f 170//45 173//45 100//46
f 173//45 175//45 130//46
f 175//45 177//45 131//46
f 177//45 179//45 132//46
f 179//45 181//35 133//46
f 100//46 130//46 99//40
f 130//46 131//46 135//40
f 131//46 132//46 136//40
f 132//46 133//46 137//40
f 133//46 134//38 138//40
f 99//40 135//40 98//41
f 135//40 136//40 140//41
f 136//40 137//40 141//41
f 137//40 138//40 142//41
f 138//40 139//40 143//41
f 98//41 140//41 97//42
f 140//41 141//41 145//42
f 141//41 142//41 146//42
f 142//41 143//41 147//42
f 143//41 144//41 148//42
f 97//42 145//42 96//28
f 145//42 146//42 150//28
f 146//42 147//42 151//28
f 147//42 148//42 152//28
f 148//42 149//42 153//28
f 124//31 109//47 168//48
f 168//48 157//49 167//32
f 102//31 120//31 155//50
f 155//50 160//50 156//43
f 120//31 121//31 160//50
f 160//50 162//50 159//43
f 121//31 122//31 162//50
f 162//50 164//50 161//43
f 122//31 123//31 164//50
f 164//50 166//50 163//43
f 123//31 124//31 166//50
f 166//50 168//48 165//43
f 129//34 108//51 182//52
f 182//52 171//53 172//36
f 101//44 125//44 169//54
f 169//54 174//54 170//45
f 125//44 126//44 174//54
f 174//54 176//54 173//45
f 126//44 127//44 176//54
f 176//54 178//54 175//45
f 127//44 128//44 178//54
f 178//54 180//54 177//45
f 128//44 129//34 180//54
f 180//54 182//52 179//45
f 103//28 94//29 114//29
f 95//30 109//47 124//31
f 158//33 108//51 129//34
f 134//38 181//35 107//37
f 139//40 134//38 106//39
f 106//39 105//41 144//41
f 105//41 104//42 149//42
f 104//42 103//28 154//28
f 150//28 110//29 92//29
f 151//28 111//29 110//29
f 152//28 112//29 111//29
f 153//28 113//29 112//29
f 154//28 114//29 113//29
f 119//30 120//31 102//31
f 118//30 121//31 120//31
f 117//30 122//31 121//31
f 116//30 123//31 122//31
f 115//30 124//31 123//31
f 159//43 125//44 101//44
f 161//43 126//44 125//44
f 163//43 127//44 126//44
f 165//43 128//44 127//44
f 167//32 129//34 128//44
f 173//45 130//46 100//46
f 175//45 131//46 130//46
f 177//45 132//46 131//46
f 179//45 133//46 132//46
f 181//35 134//38 133//46
f 130//46 135//40 99//40
f 131//46 136//40 135//40
f 132//46 137//40 136//40
f 133//46 138//40 137//40
f 134//38 139//40 138//40
f 135//40 140//41 98//41
f 136//40 141//41 140//41
f 137//40 142//41 141//41
f 138//40 143//41 142//41
f 139//40 144//41 143//41
f 140//41 145//42 97//42
f 141//41 146//42 145//42
f 142//41 147//42 146//42
f 143//41 148//42 147//42
f 144//41 149//42 148//42
f 145//42 150//28 96//28
f 146//42 151//28 150//28
f 147//42 152//28 151//28
f 148//42 153//28 152//28
f 149//42 154//28 153//28
f 109//47 157//49 168//48
f 157//49 158//33 167//32
f 120//31 160//50 155//50
f 160//50 159//43 156//43
f 121//31 162//50 160//50
f 162//50 161//43 159//43
f 122//31 164//50 162//50
f 164//50 163//43 161//43
f 123//31 166//50 164//50
f 166//50 165//43 163//43
f 124//31 168//48 166//50
f 168//48 167//32 165//43
f 108//51 171//53 182//52
f 181//35 182//52 172//36
f 125//44 174//54 169//54
f 174//54 173//45 170//45
f 126//44 176//54 174//54
f 176//54 175//45 173//45
f 127//44 178//54 176//54
f 178//54 177//45 175//45
f 128//44 180//54 178//54
f 180//54 179//45 177//45
f 129//34 182//52 180//54
f 182//52 181//35 179//45
