# Blender v2.68 (sub 0) OBJ File: 'cutlass.blend'
# www.blender.org
mtllib rearwindow.mtl
o TintedWindows_Plane
v -0.310041 1.039662 -0.214461
v -0.470029 1.037565 -0.212735
v -0.539023 1.035542 -0.211997
v -0.022411 1.043862 -0.216515
v -0.063263 1.044255 -0.217181
v -0.608670 0.772164 0.033591
v -0.578251 0.903078 -0.088231
v -0.612051 0.757618 0.047126
v -0.557971 0.990354 -0.169446
v -0.555718 1.000051 -0.178470
v -0.551211 1.019446 -0.196518
v -0.547831 1.033992 -0.210053
v -0.553464 1.009748 -0.187494
v -0.602587 0.798347 0.009226
v -0.584335 0.876895 -0.063867
v -0.571491 0.932170 -0.115303
v -0.564731 0.961262 -0.142374
v -0.590419 0.850712 -0.039503
v -0.596503 0.824529 -0.015138
v -0.544984 1.035273 -0.211547
v -0.552713 1.012981 -0.190502
v -0.551962 1.016213 -0.193510
v -0.496394 1.036785 -0.212091
v -0.005585 1.043862 -0.216515
v -0.605522 0.757584 0.047139
v -0.574856 0.917687 -0.101826
v 0.043019 0.755186 0.047516
v 0.025522 0.755264 0.047439
v 0.297341 1.039662 -0.214461
v 0.457328 1.037565 -0.212735
v 0.526323 1.035542 -0.211997
v 0.009507 0.755113 0.047361
v 0.009711 1.043862 -0.216515
v 0.050563 1.044255 -0.217181
v 0.595970 0.772164 0.033591
v 0.565550 0.903078 -0.088231
v 0.599350 0.757618 0.047126
v 0.545271 0.990354 -0.169446
v 0.543017 1.000051 -0.178470
v 0.538511 1.019446 -0.196518
v 0.535131 1.033992 -0.210053
v 0.540764 1.009748 -0.187494
v 0.589886 0.798347 0.009226
v 0.571634 0.876895 -0.063867
v 0.558790 0.932170 -0.115303
v 0.552031 0.961262 -0.142374
v 0.577718 0.850712 -0.039503
v 0.583802 0.824529 -0.015138
v 0.532284 1.035273 -0.211547
v 0.540013 1.012981 -0.190502
v 0.539262 1.016213 -0.193510
v 0.483694 1.036785 -0.212091
v -0.007320 0.755113 0.047206
v -0.007116 1.043862 -0.216515
v 0.592822 0.757584 0.047139
v 0.562156 0.917687 -0.101826
v -0.600400 0.923169 -0.703425
v -0.568615 1.060340 -0.540001
v -0.580434 1.014384 -0.515352
v -0.599853 0.922863 -0.471868
v -0.624575 0.800680 -0.421612
v -0.633216 0.762677 -0.411756
v -0.638438 0.744102 -0.413332
v -0.640164 0.732163 -0.431208
v -0.642115 0.726065 -0.450463
v -0.643242 0.722437 -0.469193
v -0.643308 0.721028 -0.506429
v -0.643307 0.722184 -0.540897
v -0.643307 0.721702 -0.570261
v -0.642772 0.723080 -0.612626
v -0.642772 0.722888 -0.639327
v -0.642596 0.723080 -0.672318
v -0.642595 0.724359 -0.684448
v -0.640018 0.736013 -0.685252
v -0.628850 0.780782 -0.690226
v -0.599851 0.923048 -0.703159
v -0.576096 1.036463 -0.714103
v -0.566575 1.069627 -0.717744
v -0.568612 1.062121 -0.545276
v -0.564786 1.074315 -0.713102
v -0.567656 1.065170 -0.587233
v -0.566699 1.068218 -0.629189
v -0.565743 1.071266 -0.671145
v -0.566893 1.060340 -0.540001
v -0.578712 1.014384 -0.515352
v -0.598131 0.922863 -0.471868
v -0.622853 0.800680 -0.421612
v -0.631493 0.762677 -0.411756
v -0.636716 0.744102 -0.413332
v -0.638442 0.732163 -0.431208
v -0.640393 0.726065 -0.450463
v -0.641520 0.722437 -0.469193
v -0.641585 0.721028 -0.506429
v -0.641585 0.722184 -0.540897
v -0.641585 0.721702 -0.570261
v -0.641050 0.723080 -0.612626
v -0.641050 0.722888 -0.639327
v -0.640873 0.723080 -0.672318
v -0.640873 0.724359 -0.684448
v -0.638296 0.736013 -0.685252
v -0.627127 0.780782 -0.690226
v -0.598129 0.923048 -0.703159
v -0.574374 1.036463 -0.714103
v -0.564852 1.069627 -0.717744
v -0.566890 1.062121 -0.545276
v -0.563064 1.074315 -0.713102
v -0.565933 1.065170 -0.587233
v -0.564977 1.068218 -0.629189
v -0.564020 1.071266 -0.671145
v -0.562133 1.063746 -0.539483
v -0.574200 1.016828 -0.514317
v -0.594026 0.923390 -0.469923
v -0.619265 0.798648 -0.418615
v -0.628086 0.759850 -0.408552
v -0.633418 0.740886 -0.410161
v -0.635181 0.728698 -0.428412
v -0.637172 0.722471 -0.448070
v -0.638323 0.718768 -0.467192
v -0.638390 0.717329 -0.505208
v -0.638390 0.718509 -0.540398
v -0.638390 0.718017 -0.570377
v -0.637843 0.719424 -0.613629
v -0.637843 0.719228 -0.640889
v -0.637663 0.719424 -0.674571
v -0.637663 0.720730 -0.686955
v -0.635032 0.732628 -0.687775
v -0.623629 0.778334 -0.692853
v -0.594024 0.923580 -0.706058
v -0.569771 1.039369 -0.717230
v -0.560050 1.073227 -0.720948
v -0.562130 1.065565 -0.544868
v -0.558224 1.078014 -0.716208
v -0.561154 1.068677 -0.587703
v -0.560177 1.071789 -0.630538
v -0.559201 1.074901 -0.673373
v 0.555915 1.060340 -0.540001
v 0.567734 1.014384 -0.515352
v 0.587153 0.922863 -0.471868
v 0.611875 0.800680 -0.421612
v 0.620515 0.762677 -0.411756
v 0.625738 0.744102 -0.413332
v 0.627464 0.732163 -0.431208
v 0.629415 0.726065 -0.450463
v 0.630542 0.722437 -0.469193
v 0.630607 0.721028 -0.506429
v 0.630607 0.722184 -0.540897
v 0.630607 0.721702 -0.570261
v 0.630072 0.723080 -0.612626
v 0.630072 0.722888 -0.639327
v 0.629895 0.723080 -0.672318
v 0.629895 0.724359 -0.684448
v 0.627318 0.736013 -0.685252
v 0.616149 0.780782 -0.690226
v 0.587151 0.923048 -0.703159
v 0.563396 1.036463 -0.714103
v 0.553875 1.069627 -0.717744
v 0.555912 1.062121 -0.545276
v 0.552086 1.074315 -0.713102
v 0.554955 1.065170 -0.587233
v 0.553999 1.068218 -0.629189
v 0.553043 1.071266 -0.671145
v 0.554192 1.060340 -0.540001
v 0.566011 1.014384 -0.515352
v 0.585431 0.922863 -0.471868
v 0.610152 0.800680 -0.421612
v 0.618793 0.762677 -0.411756
v 0.624015 0.744102 -0.413332
v 0.625741 0.732163 -0.431208
v 0.627692 0.726065 -0.450463
v 0.628819 0.722437 -0.469193
v 0.628885 0.721028 -0.506429
v 0.628885 0.722184 -0.540897
v 0.628885 0.721702 -0.570261
v 0.628350 0.723080 -0.612626
v 0.628350 0.722888 -0.639327
v 0.628173 0.723080 -0.672318
v 0.628173 0.724359 -0.684448
v 0.625595 0.736013 -0.685252
v 0.614427 0.780782 -0.690226
v 0.585429 0.923048 -0.703159
v 0.561674 1.036463 -0.714103
v 0.552152 1.069627 -0.717744
v 0.554189 1.062121 -0.545276
v 0.550364 1.074315 -0.713102
v 0.553233 1.065170 -0.587233
v 0.552276 1.068218 -0.629189
v 0.551320 1.071266 -0.671145
v 0.549433 1.063746 -0.539483
v 0.561500 1.016828 -0.514317
v 0.581326 0.923390 -0.469923
v 0.606565 0.798648 -0.418615
v 0.615386 0.759850 -0.408552
v 0.620718 0.740886 -0.410161
v 0.622480 0.728698 -0.428412
v 0.624472 0.722471 -0.448070
v 0.625623 0.718768 -0.467192
v 0.625690 0.717329 -0.505208
v 0.625689 0.718509 -0.540398
v 0.625689 0.718017 -0.570377
v 0.625143 0.719424 -0.613629
v 0.625143 0.719228 -0.640889
v 0.624963 0.719424 -0.674571
v 0.624963 0.720730 -0.686955
v 0.622331 0.732628 -0.687775
v 0.610929 0.778334 -0.692853
v 0.581323 0.923580 -0.706058
v 0.557071 1.039369 -0.717230
v 0.547350 1.073227 -0.720948
v 0.549430 1.065565 -0.544868
v 0.545524 1.078014 -0.716208
v 0.548453 1.068677 -0.587703
v 0.547477 1.071789 -0.630538
v 0.546501 1.074901 -0.673373
vn -0.005005 0.695395 0.718589
vn -0.016205 0.926115 -0.376843
vn 0.000397 0.676199 0.736686
vn -0.711203 0.103580 -0.695273
vn -0.502304 0.823267 -0.264351
vn -0.599384 0.374523 -0.707389
vn -0.221290 0.433546 0.873501
vn 0.551805 0.237312 0.799463
vn 0.519028 0.292428 0.803156
vn -0.640980 0.354625 0.680685
vn -0.239235 0.364666 0.899838
vn -0.301035 -0.028230 -0.953185
vn -0.713523 0.081118 -0.695883
vn -0.761254 -0.647023 -0.042756
vn -0.424238 -0.904294 -0.046968
vn -0.783410 -0.621479 0.000977
vn -0.770653 -0.637196 0.001648
vn -0.419324 -0.907804 0.000214
vn -0.429273 -0.896573 0.108676
vn -0.648030 0.197699 0.735496
vn -0.301828 0.189428 0.934324
vn -0.598926 0.788659 0.138737
vn -0.314463 0.930876 0.185888
vn -0.309214 0.948943 0.061892
vn -0.399945 0.366680 -0.839961
vn -0.656575 -0.493576 -0.570299
vn -0.496200 -0.514634 -0.699179
vn -0.785363 -0.618976 -0.005219
vn -0.411939 -0.911161 -0.007172
vn -0.700797 -0.282205 0.655141
vn -0.452223 -0.339244 0.824854
vn -0.626789 0.778008 0.042268
vn -0.506058 0.685629 0.523240
vn -0.305979 0.726279 0.615528
vn -0.706534 0.104862 -0.699850
vn -0.297281 -0.018860 -0.954588
vn -0.774621 -0.632282 -0.009949
vn -0.416395 -0.909116 -0.009827
vn -0.736808 -0.574236 0.356822
vn -0.469741 -0.778222 0.416700
vn -0.623463 0.780206 0.050142
vn -0.597552 0.800562 0.044527
vn -0.417982 0.879543 -0.227271
vn -0.689200 0.082156 -0.719871
vn -0.308573 -0.025819 -0.950835
vn -0.784051 -0.620472 -0.016144
vn -0.413465 -0.910367 -0.015290
vn -0.762993 -0.609821 0.214240
vn -0.443861 -0.860469 0.250069
vn -0.676504 0.451796 0.581530
vn -0.221076 0.477706 0.850215
vn -0.304544 -0.026368 -0.952116
vn -0.413007 -0.910703 0.000183
vn -0.765313 -0.636616 0.094790
vn -0.655904 0.415387 0.630238
vn 0.479293 0.793481 -0.374981
vn 0.395459 -0.178991 -0.900845
vn 0.311228 0.333537 -0.889859
vn 0.529832 0.155461 0.833705
vn 0.243324 -0.968413 -0.054201
vn 0.240028 -0.970733 0.006439
vn 0.206763 -0.970641 0.122715
vn 0.412488 -0.041444 0.910001
vn 0.517258 0.832026 0.200385
vn 0.546739 0.834071 0.072970
vn 0.135624 -0.721610 -0.678854
vn 0.250893 -0.967956 -0.009613
vn 0.134068 -0.547960 0.825678
vn 0.550584 0.832881 0.055910
vn 0.549364 0.646657 0.529160
vn 0.429151 -0.176885 -0.885739
vn 0.239723 -0.970794 -0.006500
vn 0.197668 -0.894986 0.399853
vn 0.577349 0.813257 0.072237
vn 0.440260 -0.187109 -0.878140
vn 0.252358 -0.967620 -0.003632
vn 0.203742 -0.949889 0.237037
vn 0.416913 -0.168035 -0.893246
vn 0.238136 -0.971191 -0.003632
vn 0.502304 0.823267 -0.264382
vn 0.711203 0.103580 -0.695273
vn 0.599384 0.374523 -0.707389
vn 0.221320 0.433546 0.873501
vn 0.221076 0.477706 0.850215
vn -0.519028 0.292428 0.803156
vn 0.640980 0.354656 0.680685
vn 0.655904 0.415357 0.630238
vn 0.713523 0.081118 -0.695883
vn 0.301035 -0.028230 -0.953185
vn 0.761254 -0.647023 -0.042756
vn 0.783410 -0.621479 0.000977
vn 0.424238 -0.904294 -0.046968
vn 0.770653 -0.637196 0.001648
vn 0.765313 -0.636616 0.094790
vn 0.429273 -0.896573 0.108676
vn 0.648030 0.197699 0.735496
vn 0.239235 0.364666 0.899838
vn 0.598926 0.788659 0.138737
vn 0.626789 0.778008 0.042268
vn 0.309214 0.948943 0.061892
vn 0.399945 0.366710 -0.839961
vn 0.656575 -0.493576 -0.570299
vn 0.496231 -0.514634 -0.699179
vn 0.785363 -0.618976 -0.005219
vn 0.411939 -0.911161 -0.007172
vn 0.700797 -0.282205 0.655141
vn 0.301828 0.189428 0.934324
vn 0.623463 0.780206 0.050142
vn 0.506058 0.685629 0.523240
vn 0.314463 0.930876 0.185888
vn 0.706534 0.104862 -0.699850
vn 0.297281 -0.018860 -0.954588
vn 0.774621 -0.632282 -0.009949
vn 0.416395 -0.909116 -0.009827
vn 0.736808 -0.574236 0.356822
vn 0.452223 -0.339244 0.824854
vn 0.597552 0.800562 0.044527
vn 0.417982 0.879543 -0.227302
vn 0.689200 0.082156 -0.719871
vn 0.308573 -0.025819 -0.950835
vn 0.784051 -0.620472 -0.016144
vn 0.413465 -0.910367 -0.015290
vn 0.762993 -0.609821 0.214240
vn 0.469741 -0.778252 0.416669
vn 0.676504 0.451796 0.581530
vn 0.305979 0.726279 0.615528
vn 0.304544 -0.026368 -0.952116
vn 0.413038 -0.910703 0.000183
vn 0.443861 -0.860469 0.250069
vn -0.395459 -0.178991 -0.900845
vn -0.479324 0.793481 -0.374981
vn -0.311228 0.333567 -0.889859
vn -0.529832 0.155431 0.833705
vn -0.243324 -0.968413 -0.054201
vn 0.419324 -0.907804 0.000214
vn -0.206763 -0.970641 0.122715
vn -0.412488 -0.041444 0.910001
vn -0.546770 0.834071 0.072970
vn -0.135624 -0.721610 -0.678854
vn -0.240059 -0.970733 0.006439
vn -0.134068 -0.547960 0.825678
vn -0.550584 0.832881 0.055910
vn -0.517258 0.831996 0.200385
vn -0.250923 -0.967956 -0.009613
vn -0.577349 0.813257 0.072237
vn -0.429151 -0.176885 -0.885708
vn -0.252358 -0.967620 -0.003632
vn -0.197668 -0.894986 0.399853
vn -0.549333 0.646626 0.529191
vn -0.416913 -0.168035 -0.893246
vn -0.238136 -0.971221 -0.003632
vn -0.203742 -0.949889 0.237037
vn -0.004181 0.717490 0.696524
vn 0.014954 -0.441359 0.897183
vn -0.011170 0.914426 0.404553
vn -0.006561 0.770012 0.637959
vn -0.004456 0.703391 0.710776
vn -0.003784 0.681692 0.731620
vn -0.003784 0.681692 0.731590
vn -0.001282 0.678915 0.734184
vn 0.002258 0.674917 0.737846
vn -0.002167 0.674306 0.738426
vn -0.002197 0.680929 0.732292
vn -0.002319 0.680929 0.732322
vn -0.002197 0.680929 0.732322
vn 0.000427 0.696860 0.717185
vn -0.039857 0.685049 0.727378
vn -0.016846 0.742729 0.669332
vn 0.001679 0.684225 0.729240
vn 0.003815 0.674856 0.737938
vn -0.002441 0.680929 0.732322
vn 0.000824 0.668935 0.743278
vn -0.000122 0.675619 0.737236
vn 0.004913 0.696097 0.717917
vn -0.002441 0.680898 0.732353
vn 0.000305 0.679891 0.733299
vn 0.005036 0.693686 0.720237
vn -0.008423 0.674062 0.738609
vn -0.004730 0.674459 0.738273
vn 0.003571 0.681661 0.731620
vn 0.003571 0.681661 0.731651
vn 0.003662 0.681661 0.731620
vn 0.003601 0.681631 0.731651
vn 0.000122 0.645772 0.763512
vn 0.000000 0.223365 0.974700
vn 0.000000 -0.970611 0.240547
vn -0.551805 0.237312 0.799463
vn -0.440260 -0.187109 -0.878140
vn -0.239753 -0.970794 -0.006500
usemtl darkwindows
s 1
f 5//1 1//2 4//3
f 77//4 80//5 78//6
f 86//7 112//8 111//9
f 61//10 87//11 86//7
f 77//4 103//12 76//13
f 72//14 98//15 71//16
f 67//17 93//18 92//19
f 62//20 88//21 87//11
f 79//22 105//23 107//24
f 78//6 104//25 77//4
f 73//26 99//27 72//14
f 68//28 94//29 67//17
f 63//30 89//31 88//21
f 81//32 107//24 108//24
f 58//33 84//34 105//23
f 74//35 100//36 73//26
f 69//37 95//38 68//28
f 64//39 90//40 89//31
f 82//41 108//24 109//24
f 83//42 109//24 106//43
f 75//44 101//45 74//35
f 70//46 96//47 69//37
f 65//48 91//49 90//40
f 59//50 85//51 84//34
f 80//5 106//43 78//6
f 76//13 102//52 75//44
f 71//16 97//53 70//46
f 66//54 92//19 91//49
f 60//55 86//7 85//51
f 132//56 129//57 130//58
f 87//11 113//59 86//7
f 103//12 129//57 102//52
f 98//15 124//60 97//53
f 93//18 119//61 118//62
f 88//21 114//63 87//11
f 105//23 131//64 133//65
f 104//25 130//58 103//12
f 99//27 125//66 98//15
f 94//29 120//67 119//61
f 89//31 115//68 88//21
f 107//24 133//65 134//69
f 84//34 110//70 131//64
f 100//36 126//71 125//66
f 95//38 121//72 120//67
f 90//40 116//73 115//68
f 108//24 134//69 135//74
f 109//24 135//74 132//56
f 101//45 127//75 126//71
f 96//47 122//76 95//38
f 91//49 117//77 116//73
f 85//51 111//9 110//70
f 106//43 132//56 104//25
f 102//52 128//78 101//45
f 97//53 123//79 96//47
f 92//19 118//62 117//77
f 158//80 155//81 156//82
f 164//83 163//84 189//85
f 139//86 138//87 164//83
f 155//81 154//88 181//89
f 150//90 149//91 176//92
f 145//93 144//94 170//95
f 140//96 139//86 165//97
f 157//98 159//99 185//100
f 156//82 155//81 182//101
f 151//102 150//90 177//103
f 146//104 145//93 172//105
f 141//106 140//96 166//107
f 159//99 160//108 186//100
f 136//109 157//98 183//110
f 152//111 151//102 178//112
f 147//113 146//104 173//114
f 142//115 141//106 167//116
f 160//108 161//117 187//100
f 161//117 158//80 184//118
f 153//119 152//111 179//120
f 148//121 147//113 174//122
f 143//123 142//115 168//124
f 137//125 136//109 162//126
f 158//80 156//82 184//118
f 154//88 153//119 180//127
f 149//91 148//121 175//128
f 144//94 143//123 169//129
f 138//87 137//125 163//84
f 207//130 210//131 208//132
f 165//97 164//83 191//133
f 181//89 180//127 207//130
f 176//92 175//128 202//134
f 171//135 170//95 196//136
f 166//107 165//97 192//137
f 183//110 185//100 211//138
f 182//101 181//89 208//132
f 177//103 176//92 203//139
f 172//105 171//135 197//140
f 167//116 166//107 193//141
f 185//100 186//100 212//142
f 162//126 183//110 209//143
f 178//112 177//103 203//139
f 173//114 172//105 198//144
f 168//124 167//116 193//141
f 186//100 187//100 213//145
f 187//100 184//118 210//131
f 179//120 178//112 204//146
f 174//122 173//114 200//147
f 169//129 168//124 194//148
f 163//84 162//126 188//149
f 184//118 182//101 210//131
f 180//127 179//120 206//150
f 175//128 174//122 201//151
f 170//95 169//129 195//152
f 1//2 2//153 4//3
f 2//153 23//154 4//3
f 23//154 3//155 4//3
f 3//155 20//156 4//3
f 20//156 12//157 4//3
f 12//157 11//158 4//3
f 11//158 22//159 4//3
f 22//159 21//159 4//3
f 21//159 13//158 4//3
f 13//158 10//158 4//3
f 10//158 9//158 4//3
f 9//158 17//158 4//3
f 17//158 16//158 4//3
f 16//158 26//158 4//3
f 26//158 7//158 4//3
f 7//158 15//158 4//3
f 15//158 18//158 4//3
f 18//158 19//158 4//3
f 19//158 14//158 4//3
f 14//158 6//158 4//3
f 6//158 8//160 4//3
f 8//160 25//161 4//3
f 25//161 53//162 4//3
f 35//163 55//164 37//165
f 31//166 41//167 49//168
f 31//166 40//169 41//167
f 52//170 40//169 31//166
f 43//171 55//164 35//163
f 30//172 40//169 52//170
f 43//171 27//173 55//164
f 29//174 40//169 30//172
f 48//175 27//173 43//171
f 47//175 27//173 48//175
f 44//175 27//173 47//175
f 36//176 27//173 44//175
f 34//177 40//169 29//174
f 53//162 32//178 4//3
f 32//178 28//179 4//3
f 28//179 27//173 4//3
f 27//173 36//176 4//3
f 36//176 56//180 4//3
f 56//180 45//181 4//3
f 45//181 46//180 4//3
f 46//180 38//181 4//3
f 38//181 39//181 4//3
f 39//181 42//180 4//3
f 34//177 51//182 40//169
f 50//183 51//182 34//177
f 50//183 34//177 33//184
f 42//180 50//183 4//3
f 50//183 33//184 4//3
f 33//184 54//185 4//3
f 54//185 57//186 4//3
f 57//186 24//186 4//3
f 62//20 64//39 63//30
f 77//4 83//42 80//5
f 61//10 64//39 62//20
f 72//14 74//35 73//26
f 77//4 82//41 83//42
f 76//13 82//41 77//4
f 71//16 74//35 72//14
f 71//16 75//44 74//35
f 75//44 82//41 76//13
f 61//10 65//48 64//39
f 60//55 65//48 61//10
f 70//46 75//44 71//16
f 70//46 82//41 75//44
f 70//46 81//32 82//41
f 69//37 81//32 70//46
f 79//22 81//32 69//37
f 59//50 65//48 60//55
f 79//22 69//37 68//28
f 79//22 68//28 67//17
f 79//22 67//17 66//54
f 58//33 79//22 59//50
f 79//22 66//54 59//50
f 66//54 65//48 59//50
f 85//51 86//7 111//9
f 60//55 61//10 86//7
f 103//12 102//52 76//13
f 98//15 97//53 71//16
f 66//54 67//17 92//19
f 61//10 62//20 87//11
f 81//32 79//22 107//24
f 104//25 103//12 77//4
f 99//27 98//15 72//14
f 94//29 93//18 67//17
f 62//20 63//30 88//21
f 82//41 81//32 108//24
f 79//22 58//33 105//23
f 100//36 99//27 73//26
f 95//38 94//29 68//28
f 63//30 64//39 89//31
f 83//42 82//41 109//24
f 80//5 83//42 106//43
f 101//45 100//36 74//35
f 96//47 95//38 69//37
f 64//39 65//48 90//40
f 58//33 59//50 84//34
f 106//43 104//25 78//6
f 102//52 101//45 75//44
f 97//53 96//47 70//46
f 65//48 66//54 91//49
f 59//50 60//55 85//51
f 116//73 114//63 115//68
f 135//74 129//57 132//56
f 116//73 113//59 114//63
f 126//71 124//60 125//66
f 134//69 129//57 135//74
f 134//69 128//78 129//57
f 126//71 123//79 124//60
f 127//75 123//79 126//71
f 134//69 127//75 128//78
f 117//77 113//59 116//73
f 117//77 112//8 113//59
f 127//75 122//76 123//79
f 134//69 122//76 127//75
f 133//65 122//76 134//69
f 133//65 121//72 122//76
f 131//64 121//72 133//65
f 111//9 112//8 117//77
f 131//64 120//67 121//72
f 131//64 119//61 120//67
f 131//64 118//62 119//61
f 110//70 111//9 131//64
f 111//9 117//77 118//62
f 131//64 111//9 118//62
f 113//59 112//8 86//7
f 129//57 128//78 102//52
f 124//60 123//79 97//53
f 92//19 93//18 118//62
f 114//63 113//59 87//11
f 107//24 105//23 133//65
f 130//58 129//57 103//12
f 125//66 124//60 98//15
f 93//18 94//29 119//61
f 115//68 114//63 88//21
f 108//24 107//24 134//69
f 105//23 84//34 131//64
f 99//27 100//36 125//66
f 94//29 95//38 120//67
f 89//31 90//40 115//68
f 109//24 108//24 135//74
f 106//43 109//24 132//56
f 100//36 101//45 126//71
f 122//76 121//72 95//38
f 90//40 91//49 116//73
f 84//34 85//51 110//70
f 132//56 130//58 104//25
f 128//78 127//75 101//45
f 123//79 122//76 96//47
f 91//49 92//19 117//77
f 142//115 140//96 141//106
f 161//117 155//81 158//80
f 142//115 139//86 140//96
f 152//111 150//90 151//102
f 160//108 155//81 161//117
f 160//108 154//88 155//81
f 152//111 149//91 150//90
f 153//119 149//91 152//111
f 160//108 153//119 154//88
f 143//123 139//86 142//115
f 143//123 138//87 139//86
f 153//119 148//121 149//91
f 160//108 148//121 153//119
f 159//99 148//121 160//108
f 159//99 147//113 148//121
f 157//98 147//113 159//99
f 137//125 138//87 143//123
f 157//98 146//104 147//113
f 157//98 145//93 146//104
f 157//98 144//94 145//93
f 136//109 137//125 157//98
f 137//125 143//123 144//94
f 157//98 137//125 144//94
f 190//187 164//83 189//85
f 165//97 139//86 164//83
f 154//88 180//127 181//89
f 149//91 175//128 176//92
f 171//135 145//93 170//95
f 166//107 140//96 165//97
f 183//110 157//98 185//100
f 155//81 181//89 182//101
f 150//90 176//92 177//103
f 145//93 171//135 172//105
f 167//116 141//106 166//107
f 185//100 159//99 186//100
f 162//126 136//109 183//110
f 151//102 177//103 178//112
f 146//104 172//105 173//114
f 168//124 142//115 167//116
f 186//100 160//108 187//100
f 187//100 161//117 184//118
f 152//111 178//112 179//120
f 147//113 173//114 174//122
f 169//129 143//123 168//124
f 163//84 137//125 162//126
f 156//82 182//101 184//118
f 153//119 179//120 180//127
f 148//121 174//122 175//128
f 170//95 144//94 169//129
f 164//83 138//87 163//84
f 192//137 194//148 193//141
f 207//130 213//145 210//131
f 191//133 194//148 192//137
f 202//134 204//146 203//139
f 207//130 212//142 213//145
f 206//150 212//142 207//130
f 201//151 204//146 202//134
f 201//151 205//188 204//146
f 205//188 212//142 206//150
f 191//133 195//152 194//148
f 190//187 195//152 191//133
f 200//147 205//188 201//151
f 200//147 212//142 205//188
f 200//147 211//138 212//142
f 199//189 211//138 200//147
f 209//143 211//138 199//189
f 189//85 195//152 190//187
f 209//143 199//189 198//144
f 209//143 198//144 197//140
f 209//143 197//140 196//136
f 188//149 209//143 189//85
f 209//143 196//136 189//85
f 196//136 195//152 189//85
f 164//83 190//187 191//133
f 180//127 206//150 207//130
f 175//128 201//151 202//134
f 197//140 171//135 196//136
f 165//97 191//133 192//137
f 209//143 183//110 211//138
f 181//89 207//130 208//132
f 176//92 202//134 203//139
f 198//144 172//105 197//140
f 166//107 192//137 193//141
f 211//138 185//100 212//142
f 188//149 162//126 209//143
f 204//146 178//112 203//139
f 199//189 173//114 198//144
f 194//148 168//124 193//141
f 212//142 186//100 213//145
f 213//145 187//100 210//131
f 205//188 179//120 204//146
f 173//114 199//189 200//147
f 195//152 169//129 194//148
f 189//85 163//84 188//149
f 182//101 208//132 210//131
f 179//120 205//188 206//150
f 174//122 200//147 201//151
f 196//136 170//95 195//152
