# Blender v2.68 (sub 0) OBJ File: 'cutlass.blend'
# www.blender.org
mtllib trunk.mtl
o TrunkLid_Plane.002
v -0.592003 0.492112 1.047436
v -0.592003 0.352394 1.107633
v -0.592003 0.707375 0.294477
v -0.592003 0.720211 0.192364
v -0.592003 0.656078 0.741427
v -0.592003 0.610574 0.981521
v 0.594545 0.656078 0.741427
v 0.594545 0.610574 0.981521
v 0.594545 0.492112 1.047436
v 0.594545 0.352394 1.107633
v 0.594545 0.707375 0.294477
v 0.594545 0.720211 0.192364
v -0.592003 0.739573 0.068328
v 0.594545 0.739573 0.068328
v -0.443685 0.610574 0.981521
v -0.295366 0.610574 0.981521
v -0.147047 0.610574 0.981521
v 0.001271 0.610574 0.981521
v 0.149590 0.610574 0.981521
v 0.297908 0.610574 0.981521
v 0.446227 0.610574 0.981521
v 0.446227 0.492112 1.047436
v 0.297908 0.492112 1.047436
v 0.149590 0.492112 1.047436
v 0.001271 0.492112 1.047436
v -0.147047 0.492112 1.047436
v -0.295366 0.492112 1.047436
v -0.443685 0.492112 1.047436
v 0.446227 0.352394 1.107633
v 0.297908 0.352394 1.107633
v 0.149590 0.352394 1.107633
v 0.001271 0.352394 1.107633
v -0.147047 0.352394 1.107633
v -0.295366 0.352394 1.107633
v -0.443685 0.352394 1.107633
v -0.443685 0.656078 0.741427
v -0.295366 0.656078 0.741427
v -0.147047 0.656078 0.741427
v 0.001271 0.658563 0.741427
v 0.149590 0.656078 0.741427
v 0.297908 0.656078 0.741427
v 0.446227 0.656078 0.741427
v 0.446227 0.707375 0.294477
v 0.297908 0.707375 0.294477
v 0.149590 0.707375 0.294477
v 0.001271 0.708813 0.294477
v -0.147047 0.707375 0.294477
v -0.295366 0.707375 0.294477
v -0.443685 0.707375 0.294477
v 0.446227 0.720211 0.192364
v 0.297908 0.720211 0.192364
v 0.149590 0.720211 0.192364
v 0.001271 0.720930 0.192364
v -0.147047 0.720211 0.192364
v -0.295366 0.720211 0.192364
v -0.443685 0.720211 0.192364
v 0.446227 0.739573 0.068328
v 0.297908 0.739573 0.068328
v 0.149590 0.739573 0.068328
v 0.001271 0.739573 0.068328
v -0.147047 0.739573 0.068328
v -0.295366 0.739573 0.068328
v -0.443685 0.739573 0.068328
v -0.592003 0.628355 0.888294
v -0.592003 0.612199 0.976695
v 0.594545 0.628355 0.888294
v 0.594545 0.612199 0.976695
v -0.443685 0.612199 0.976695
v -0.443685 0.628355 0.888294
v -0.295366 0.612199 0.976695
v -0.295366 0.628355 0.888294
v -0.147047 0.612199 0.976695
v -0.147047 0.628355 0.888294
v 0.001271 0.612347 0.976695
v 0.001271 0.629332 0.888294
v 0.149590 0.612199 0.976695
v 0.149590 0.628355 0.888294
v 0.297908 0.612199 0.976695
v 0.297908 0.628355 0.888294
v 0.446227 0.612199 0.976695
v 0.446227 0.628355 0.888294
v -0.592003 0.615662 0.955541
v 0.594545 0.615662 0.955541
v -0.443685 0.615662 0.955541
v -0.295366 0.615662 0.955541
v -0.147047 0.615662 0.955541
v 0.001271 0.615947 0.955541
v 0.149590 0.615662 0.955541
v 0.297908 0.615662 0.955541
v 0.446227 0.615662 0.955541
v -0.592003 0.555113 1.015882
v -0.592003 0.607038 0.985280
v 0.594545 0.607038 0.985280
v 0.594545 0.555113 1.015882
v -0.443685 0.555113 1.015882
v -0.443685 0.607038 0.985280
v -0.295366 0.555113 1.015882
v -0.295366 0.607038 0.985280
v -0.147047 0.555113 1.015882
v -0.147047 0.607038 0.985280
v 0.001271 0.555113 1.015882
v 0.001271 0.607038 0.985280
v 0.149590 0.555113 1.015882
v 0.149590 0.607038 0.985280
v 0.297908 0.555113 1.015882
v 0.297908 0.607038 0.985280
v 0.446227 0.555113 1.015882
v 0.446227 0.607038 0.985280
v -0.592003 0.595010 0.993348
v 0.594545 0.595010 0.993348
v -0.443685 0.595010 0.993348
v -0.295366 0.595010 0.993348
v -0.147047 0.595010 0.993348
v 0.001271 0.595010 0.993348
v 0.149590 0.595010 0.993348
v 0.297908 0.595010 0.993348
v 0.446227 0.595010 0.993348
v 0.594545 0.686043 0.490114
v -0.443685 0.686043 0.490114
v -0.295366 0.686043 0.490114
v -0.147047 0.686043 0.490114
v 0.001271 0.688005 0.490114
v 0.149590 0.686043 0.490114
v 0.297908 0.686043 0.490114
v 0.446227 0.686043 0.490114
v -0.592003 0.686043 0.490114
vn 0.000000 0.646840 0.762596
vn 0.000000 0.646870 0.762596
vn 0.000000 0.857784 0.513962
vn 0.000000 0.395672 0.918363
vn 0.000000 0.421918 0.906613
vn 0.000000 0.993530 0.113376
vn 0.000000 0.988372 0.152013
vn 0.000000 0.982635 0.185461
vn 0.000000 0.990204 0.139470
vn 0.000000 0.993164 0.116550
vn 0.000000 0.988006 0.154210
vn -0.000214 0.857723 0.514084
vn 0.000000 0.850703 0.525620
vn 0.000214 0.857723 0.514084
vn -0.006195 0.993561 0.113010
vn -0.007965 0.988372 0.151708
vn 0.000000 0.993713 0.111728
vn 0.000000 0.988159 0.153386
vn 0.007965 0.988372 0.151708
vn 0.006195 0.993561 0.113010
vn -0.004456 0.982391 0.186682
vn 0.000000 0.981017 0.193854
vn 0.004456 0.982391 0.186682
vn -0.001709 0.990295 0.138859
vn -0.004059 0.993225 0.115879
vn 0.000000 0.990875 0.134556
vn 0.000000 0.993622 0.112552
vn 0.004059 0.993225 0.115879
vn 0.001709 0.990295 0.138859
vn 0.000000 0.988495 0.151128
vn 0.000000 0.970458 0.241188
vn 0.000000 0.984802 0.173498
vn -0.001770 0.984710 0.174169
vn 0.000000 0.966369 0.257149
vn 0.000000 0.983428 0.181219
vn 0.001770 0.984710 0.174169
vn 0.000671 0.970428 0.241340
vn -0.000671 0.970428 0.241310
vn 0.000000 0.469924 0.882687
vn 0.000000 0.524796 0.851192
usemtl paint
s 1
f 108//1 93//2 21//3
f 29//4 10//4 22//5
f 125//6 42//7 118//6
f 81//8 66//8 42//7
f 50//9 43//10 12//9
f 50//9 12//9 57//11
f 92//2 96//1 6//3
f 96//1 98//1 15//3
f 98//1 100//1 16//3
f 100//1 102//2 17//12
f 102//2 104//2 18//13
f 104//2 106//1 19//14
f 106//1 108//1 20//3
f 35//4 34//4 28//5
f 34//4 33//4 27//5
f 33//4 32//4 26//5
f 32//4 31//4 25//5
f 31//4 30//4 24//5
f 30//4 29//4 23//5
f 119//6 36//7 120//6
f 120//6 37//7 121//15
f 121//15 38//16 122//17
f 122//17 39//18 40//19
f 123//20 40//19 124//6
f 124//6 41//7 125//6
f 69//8 71//8 36//7
f 71//8 73//21 37//7
f 73//21 75//22 39//18
f 75//22 77//23 39//18
f 77//23 79//8 40//19
f 79//8 81//8 41//7
f 56//9 49//10 55//9
f 55//9 48//10 54//24
f 54//24 47//25 53//26
f 53//26 46//27 45//28
f 52//29 45//28 51//9
f 51//9 44//10 50//9
f 56//9 55//9 63//11
f 55//9 54//24 62//11
f 54//24 53//26 60//30
f 53//26 52//29 60//30
f 52//29 51//9 59//11
f 51//9 50//9 58//11
f 21//3 8//3 80//31
f 90//32 83//32 81//8
f 6//3 15//3 65//31
f 15//3 16//3 68//31
f 84//32 85//32 69//8
f 16//3 17//12 70//31
f 85//32 86//33 71//8
f 17//12 18//13 74//34
f 86//33 87//35 75//22
f 18//13 19//14 74//34
f 87//35 88//36 75//22
f 19//14 20//3 76//37
f 88//36 89//32 77//23
f 20//3 21//3 78//31
f 89//32 90//32 79//8
f 80//31 67//31 90//32
f 68//31 70//31 84//32
f 70//31 72//38 85//32
f 72//38 74//34 87//35
f 74//34 76//37 87//35
f 76//37 78//31 88//36
f 78//31 80//31 89//32
f 22//5 9//5 107//39
f 117//40 110//40 108//1
f 109//40 111//40 92//2
f 28//5 27//5 95//39
f 111//40 112//40 96//1
f 27//5 26//5 97//39
f 112//40 113//40 98//1
f 26//5 25//5 99//39
f 113//40 114//40 100//1
f 25//5 24//5 101//39
f 114//40 115//40 102//2
f 24//5 23//5 103//39
f 115//40 116//40 104//2
f 23//5 22//5 105//39
f 116//40 117//40 106//1
f 107//39 94//39 117//40
f 95//39 97//39 111//40
f 97//39 99//39 112//40
f 99//39 101//39 113//40
f 101//39 103//39 114//40
f 103//39 105//39 115//40
f 105//39 107//39 116//40
f 2//4 35//4 1//5
f 126//6 5//7 119//6
f 64//8 69//8 5//7
f 4//9 3//10 56//9
f 4//9 56//9 13//11
f 82//32 84//32 64//8
f 65//31 68//31 82//32
f 1//5 28//5 91//39
f 91//39 95//39 109//40
f 43//10 125//6 11//10
f 49//10 119//6 48//10
f 48//10 120//6 47//25
f 47//25 121//15 46//27
f 46//27 122//17 123//20
f 45//28 123//20 44//10
f 44//10 124//6 43//10
f 3//10 126//6 49//10
f 93//2 8//3 21//3
f 10//4 9//5 22//5
f 42//7 7//7 118//6
f 66//8 7//7 42//7
f 43//10 11//10 12//9
f 12//9 14//11 57//11
f 96//1 15//3 6//3
f 98//1 16//3 15//3
f 100//1 17//12 16//3
f 102//2 18//13 17//12
f 104//2 19//14 18//13
f 106//1 20//3 19//14
f 108//1 21//3 20//3
f 34//4 27//5 28//5
f 33//4 26//5 27//5
f 32//4 25//5 26//5
f 31//4 24//5 25//5
f 30//4 23//5 24//5
f 29//4 22//5 23//5
f 36//7 37//7 120//6
f 37//7 38//16 121//15
f 38//16 39//18 122//17
f 123//20 122//17 40//19
f 40//19 41//7 124//6
f 41//7 42//7 125//6
f 71//8 37//7 36//7
f 73//21 38//16 37//7
f 38//16 73//21 39//18
f 77//23 40//19 39//18
f 79//8 41//7 40//19
f 81//8 42//7 41//7
f 49//10 48//10 55//9
f 48//10 47//25 54//24
f 47//25 46//27 53//26
f 52//29 53//26 45//28
f 45//28 44//10 51//9
f 44//10 43//10 50//9
f 55//9 62//11 63//11
f 54//24 61//11 62//11
f 61//11 54//24 60//30
f 52//29 59//11 60//30
f 51//9 58//11 59//11
f 50//9 57//11 58//11
f 8//3 67//31 80//31
f 83//32 66//8 81//8
f 15//3 68//31 65//31
f 16//3 70//31 68//31
f 85//32 71//8 69//8
f 17//12 72//38 70//31
f 86//33 73//21 71//8
f 72//38 17//12 74//34
f 73//21 86//33 75//22
f 19//14 76//37 74//34
f 88//36 77//23 75//22
f 20//3 78//31 76//37
f 89//32 79//8 77//23
f 21//3 80//31 78//31
f 90//32 81//8 79//8
f 67//31 83//32 90//32
f 70//31 85//32 84//32
f 72//38 86//33 85//32
f 86//33 72//38 87//35
f 76//37 88//36 87//35
f 78//31 89//32 88//36
f 80//31 90//32 89//32
f 9//5 94//39 107//39
f 110//40 93//2 108//1
f 111//40 96//1 92//2
f 27//5 97//39 95//39
f 112//40 98//1 96//1
f 26//5 99//39 97//39
f 113//40 100//1 98//1
f 25//5 101//39 99//39
f 114//40 102//2 100//1
f 24//5 103//39 101//39
f 115//40 104//2 102//2
f 23//5 105//39 103//39
f 116//40 106//1 104//2
f 22//5 107//39 105//39
f 117//40 108//1 106//1
f 94//39 110//40 117//40
f 97//39 112//40 111//40
f 99//39 113//40 112//40
f 101//39 114//40 113//40
f 103//39 115//40 114//40
f 105//39 116//40 115//40
f 107//39 117//40 116//40
f 35//4 28//5 1//5
f 5//7 36//7 119//6
f 69//8 36//7 5//7
f 3//10 49//10 56//9
f 56//9 63//11 13//11
f 84//32 69//8 64//8
f 68//31 84//32 82//32
f 28//5 95//39 91//39
f 95//39 111//40 109//40
f 125//6 118//6 11//10
f 119//6 120//6 48//10
f 120//6 121//15 47//25
f 121//15 122//17 46//27
f 45//28 46//27 123//20
f 123//20 124//6 44//10
f 124//6 125//6 43//10
f 126//6 119//6 49//10
